<svg width="310" height="80" viewBox="0 0 310 80" fill="none" xmlns="http://www.w3.org/2000/svg">
<path d="M112.034 44.4288C109.519 44.4288 107.314 44.12 105.418 43.5023C103.522 42.8847 102.052 42.0115 101.008 40.8826C99.9848 39.7538 99.4737 38.4227 99.4737 36.8892C99.4737 35.3557 99.9848 34.0246 101.008 32.8958C102.052 31.767 103.522 30.8937 105.418 30.2761C107.314 29.6584 109.519 29.3496 112.034 29.3496C114.548 29.3496 116.753 29.6584 118.649 30.2761C120.545 30.8937 122.004 31.767 123.027 32.8958C124.071 34.0246 124.593 35.3557 124.593 36.8892C124.593 38.4227 124.071 39.7538 123.027 40.8826C122.004 42.0115 120.545 42.8847 118.649 43.5023C116.753 44.12 114.548 44.4288 112.034 44.4288ZM112.034 34.1098C110.009 34.1098 108.358 34.3547 107.08 34.8446C105.802 35.3344 105.163 36.016 105.163 36.8892C105.163 37.7624 105.802 38.444 107.08 38.9338C108.358 39.4237 110.009 39.6686 112.034 39.6686C114.057 39.6686 115.709 39.4237 116.987 38.9338C118.265 38.444 118.905 37.7624 118.905 36.8892C118.905 36.016 118.265 35.3344 116.987 34.8446C115.709 34.3547 114.057 34.1098 112.034 34.1098ZM125.839 50.978H120.055V57.3675H114.686V50.978H109.381V57.3675H104.012V50.978H98.2273V46.0581H125.839V50.978Z" fill="#999999"/>
<path d="M156.581 50.8503V55.7702H128.969V50.8503H140.027V47.7833H130.503V36.6656H149.742V34.8127H130.439V30.0845H155.079V41.1702H135.84V43.0551H155.399V47.7833H145.524V50.8503H156.581Z" fill="#999999"/>
<path d="M188.537 44.6523H185.341V56.7284H179.94V29.4453H185.341V39.413H188.537V44.6523ZM171.216 30.0843H176.521V55.4506H160.637V30.0843H165.942V38.1031H171.216V30.0843ZM171.216 50.4987V43.023H165.942V50.4987H171.216Z" fill="#999999"/>
<path d="M216.85 56.7284H211.449V29.4453H216.85V56.7284ZM199.848 29.7648C202.511 29.7648 204.599 30.851 206.112 33.0234C207.646 35.1746 208.413 38.4226 208.413 42.7674C208.413 47.1123 207.646 50.3709 206.112 52.5433C204.599 54.6945 202.511 55.77 199.848 55.77C197.185 55.77 195.086 54.6945 193.552 52.5433C192.018 50.3709 191.251 47.1123 191.251 42.7674C191.251 38.4226 192.018 35.1746 193.552 33.0234C195.086 30.851 197.185 29.7648 199.848 29.7648ZM199.848 34.7167C197.675 34.7167 196.588 37.4002 196.588 42.7674C196.588 48.1346 197.675 50.8182 199.848 50.8182C202 50.8182 203.076 48.1346 203.076 42.7674C203.076 39.9135 202.777 37.8582 202.181 36.6016C201.606 35.345 200.828 34.7167 199.848 34.7167Z" fill="#999999"/>
<path d="M241.902 44.6525H222.696V39.6368H241.902V35.1322H222.696V30.0845H247.304V48.9974H241.902V44.6525ZM248.806 50.7225V55.7702H221.193V50.7225H248.806Z" fill="#999999"/>
<path d="M278.301 45.8342H253.533V29.7646H277.981V34.1734H258.87V35.7388H277.534V39.86H258.87V41.4255H278.301V45.8342ZM279.547 52.3835H268.521V57.3673H262.961V52.3835H251.935V47.5274H279.547V52.3835Z" fill="#999999"/>
<path d="M309.202 29.4453V56.7284H303.801V44.7801H300.19C299.956 48.4647 299.103 51.2228 297.633 53.0545C296.184 54.8648 294.245 55.77 291.817 55.77C289.175 55.77 287.097 54.6945 285.585 52.5433C284.093 50.3709 283.348 47.1123 283.348 42.7674C283.348 38.4226 284.093 35.1746 285.585 33.0234C287.097 30.851 289.175 29.7648 291.817 29.7648C294.118 29.7648 295.993 30.5955 297.441 32.2567C298.89 33.8967 299.785 36.3886 300.126 39.7324H303.801V29.4453H309.202ZM291.817 50.8182C293.883 50.8182 294.917 48.1346 294.917 42.7674C294.917 37.4002 293.883 34.7167 291.817 34.7167C289.729 34.7167 288.685 37.4002 288.685 42.7674C288.685 48.1346 289.729 50.8182 291.817 50.8182Z" fill="#999999"/>
<path d="M23.9991 28.8384C22.4263 28.8363 20.9186 28.2108 19.8061 27.099C18.694 25.9872 18.0682 24.4799 18.0664 22.9077V15H20.0046V22.9077C20.0041 23.9607 20.4194 24.9713 21.1597 25.7203C21.9005 26.4694 22.9063 26.8965 23.9597 26.9089C25.02 26.9069 26.0358 26.4844 26.7849 25.7342C27.5339 24.984 27.9543 23.9675 27.9543 22.9077V15H29.8924V22.9077C29.8924 24.4738 29.2726 25.9763 28.1688 27.0874C27.0645 28.1985 25.566 28.828 23.9991 28.8384Z" fill="#999999"/>
<path d="M45.7607 42.2815L37.194 35.0934H39.7964C41.3692 35.0914 42.8769 34.4658 43.9895 33.354C45.1016 32.2423 45.7273 30.735 45.7291 29.1627C45.725 27.591 45.0988 26.0849 43.9872 24.9736C42.8751 23.8623 41.3687 23.2361 39.7964 23.2319H31.8861V25.2089H39.7964C40.8416 25.2211 41.8404 25.6417 42.5794 26.3805C43.3188 27.1193 43.7392 28.1179 43.7515 29.1627C43.7515 30.2157 43.3367 31.2263 42.5959 31.9753C41.8556 32.7244 40.8498 33.1515 39.7964 33.164H31.8861L42.755 42.2736L45.7607 42.2815Z" fill="#999999"/>
<path fill-rule="evenodd" clip-rule="evenodd" d="M80.5827 45.4131L81.0255 46.702H82.3705L81.3024 47.5244L81.6902 48.8134L80.5827 48.0463L79.483 48.8134L79.8708 47.5244L78.7949 46.702H80.1477L80.5827 45.4131Z" fill="#FF8A3C"/>
<path fill-rule="evenodd" clip-rule="evenodd" d="M64.6036 28.9331L65.189 30.6253H66.969L65.553 31.7245L66.0668 33.4247L64.6036 32.4125L63.1482 33.4247L63.6625 31.7245L62.2465 30.6253H64.026L64.6036 28.9331Z" fill="#FF8A3C"/>
<path fill-rule="evenodd" clip-rule="evenodd" d="M50.1115 37.2124L50.7446 39.0628H52.6827L51.1402 40.2569L51.7017 42.1152L50.1115 41.0081L48.5218 42.1152L49.0833 40.2569L47.533 39.0628H49.4711L50.1115 37.2124Z" fill="#FF8A3C"/>
<path fill-rule="evenodd" clip-rule="evenodd" d="M50.5231 53.6128L50.8949 54.6883H52.018L51.1163 55.3841L51.4487 56.4675L50.5231 55.8269L49.5894 56.4675L49.9217 55.3841L49.02 54.6883H50.1514L50.5231 53.6128Z" fill="#FF8A3C"/>
<path fill-rule="evenodd" clip-rule="evenodd" d="M56.0286 31.0444L56.6378 32.8157H58.4967L57.0174 33.9545L57.5556 35.7416L56.0286 34.6741L54.5021 35.7416L55.0398 33.9624L53.5605 32.8157H55.4194L56.0286 31.0444Z" fill="#FF8A3C"/>
<path fill-rule="evenodd" clip-rule="evenodd" d="M56.0287 59.457L56.4321 60.6115H57.6422L56.6773 61.3549L57.0252 62.5174L56.0287 61.8291L55.0321 62.5174L55.3878 61.3549L54.4229 60.6115H55.633L56.0287 59.457Z" fill="#FF8A3C"/>
<path fill-rule="evenodd" clip-rule="evenodd" d="M79.0241 37.6157L78.4942 39.1656H76.8806L78.1701 40.1541L77.6952 41.704L79.0241 40.7788L80.3531 41.704L79.8864 40.1541L81.1681 39.1656H79.554L79.0241 37.6157Z" fill="#FF8A3C"/>
<path fill-rule="evenodd" clip-rule="evenodd" d="M79.0243 53.1704L78.5498 54.5622H77.0944L78.2569 55.4557L77.8301 56.8475L79.0243 56.0172L80.2189 56.8475L79.7994 55.4557L80.9546 54.5622H79.507L79.0243 53.1704Z" fill="#FF8A3C"/>
<path fill-rule="evenodd" clip-rule="evenodd" d="M73.1075 31.2422L72.5455 32.8633H70.853L72.2053 33.9071L71.7148 35.536L73.1075 34.5634L74.4997 35.536L74.0092 33.9071L75.3537 32.8633H73.6612L73.1075 31.2422Z" fill="#FF8A3C"/>
<path fill-rule="evenodd" clip-rule="evenodd" d="M73.1075 58.998L72.6564 60.3107H71.2798L72.3717 61.157L71.9761 62.4694L73.1075 61.6867L74.2306 62.4694L73.835 61.157L74.9264 60.3107H73.5581L73.1075 58.998Z" fill="#FF8A3C"/>
<path fill-rule="evenodd" clip-rule="evenodd" d="M64.6036 61.7339L65.0309 62.9675H66.3204L65.2917 63.7662L65.6635 64.9998L64.6036 64.2643L63.5438 64.9998L63.9233 63.7662L62.8951 62.9675H64.1842L64.6036 61.7339Z" fill="#FF8A3C"/>
<path fill-rule="evenodd" clip-rule="evenodd" d="M80.5827 45.1753L81.0888 46.6382H82.6236L81.3973 47.5871L81.8484 49.058L80.5827 48.1802L79.3248 49.058L79.7677 47.5871L78.5497 46.6382H80.0844L80.5827 45.1753Z" fill="#FF8A3C"/>
<path fill-rule="evenodd" clip-rule="evenodd" d="M48.5456 45.7842L48.8857 46.7885H49.9378L49.0989 47.4369L49.4074 48.4412L48.5456 47.8402L47.6833 48.4412L47.9836 47.4369L47.153 46.7885H48.1972L48.5456 45.7842Z" fill="#FF8A3C"/>
<path d="M32.1946 44.3533C32.8299 47.4913 32.4659 50.7494 31.1535 53.6699C29.8411 56.5903 27.6462 59.0262 24.8774 60.6352C21.3651 62.6567 17.1941 63.2039 13.2793 62.1558C9.36446 61.1078 6.02496 58.5503 3.99362 55.0445C1.97396 51.5321 1.42933 47.3626 2.47913 43.4496C3.52888 39.5366 6.08744 36.1991 9.59412 34.1683C12.957 32.229 16.9314 31.6402 20.7124 32.5212C24.4928 33.4022 27.7975 35.6871 29.9557 38.9129L16.6742 46.5833L17.6392 48.2597L32.6058 39.6245C32.4632 39.3319 32.3133 39.0473 32.1469 38.7705C29.8645 34.8151 26.1046 31.9271 21.6938 30.7409C17.2825 29.5548 12.5807 30.1675 8.62138 32.4444C4.66605 34.7276 1.77845 38.4859 0.592043 42.8948C-0.594409 47.3038 0.0172932 52.0032 2.29288 55.9618C4.57832 59.914 8.33808 62.7992 12.748 63.9852C17.1579 65.1707 21.8579 64.5607 25.8186 62.2878C28.8858 60.5136 31.3318 57.8378 32.8235 54.6246C34.3152 51.4113 34.7804 47.8166 34.1561 44.3296L32.1946 44.3533Z" fill="#999999"/>
</svg>
