<svg width="310" height="50" viewBox="0 0 310 50" fill="none" xmlns="http://www.w3.org/2000/svg">
<path d="M112.034 29.4287C109.519 29.4287 107.314 29.1198 105.418 28.5022C103.522 27.8845 102.052 27.0113 101.008 25.8825C99.9848 24.7537 99.4737 23.4225 99.4737 21.889C99.4737 20.3556 99.9848 19.0244 101.008 17.8956C102.052 16.7668 103.522 15.8936 105.418 15.2759C107.314 14.6583 109.519 14.3495 112.034 14.3495C114.548 14.3495 116.753 14.6583 118.649 15.2759C120.545 15.8936 122.004 16.7668 123.027 17.8956C124.071 19.0244 124.593 20.3556 124.593 21.889C124.593 23.4225 124.071 24.7537 123.027 25.8825C122.004 27.0113 120.545 27.8845 118.649 28.5022C116.753 29.1198 114.548 29.4287 112.034 29.4287ZM112.034 19.1096C110.009 19.1096 108.358 19.3546 107.08 19.8444C105.802 20.3343 105.163 21.0158 105.163 21.889C105.163 22.7623 105.802 23.4438 107.08 23.9337C108.358 24.4235 110.009 24.6685 112.034 24.6685C114.057 24.6685 115.709 24.4235 116.987 23.9337C118.265 23.4438 118.905 22.7623 118.905 21.889C118.905 21.0158 118.265 20.3343 116.987 19.8444C115.709 19.3546 114.057 19.1096 112.034 19.1096ZM125.839 35.9779H120.055V42.3674H114.686V35.9779H109.381V42.3674H104.012V35.9779H98.2273V31.0579H125.839V35.9779Z" fill="white"/>
<path d="M156.581 35.8501V40.77H128.969V35.8501H140.027V32.7831H130.503V21.6654H149.742V19.8125H130.439V15.0843H155.079V26.17H135.84V28.0549H155.399V32.7831H145.524V35.8501H156.581Z" fill="white"/>
<path d="M188.537 29.6523H185.341V41.7284H179.94V14.4453H185.341V24.413H188.537V29.6523ZM171.216 15.0843H176.521V40.4506H160.637V15.0843H165.942V23.1031H171.216V15.0843ZM171.216 35.4987V28.023H165.942V35.4987H171.216Z" fill="white"/>
<path d="M216.85 41.7284H211.449V14.4453H216.85V41.7284ZM199.848 14.7648C202.511 14.7648 204.599 15.851 206.112 18.0234C207.646 20.1746 208.413 23.4226 208.413 27.7674C208.413 32.1123 207.646 35.3709 206.112 37.5433C204.599 39.6945 202.511 40.77 199.848 40.77C197.185 40.77 195.086 39.6945 193.552 37.5433C192.018 35.3709 191.251 32.1123 191.251 27.7674C191.251 23.4226 192.018 20.1746 193.552 18.0234C195.086 15.851 197.185 14.7648 199.848 14.7648ZM199.848 19.7167C197.675 19.7167 196.588 22.4002 196.588 27.7674C196.588 33.1346 197.675 35.8182 199.848 35.8182C202 35.8182 203.076 33.1346 203.076 27.7674C203.076 24.9135 202.777 22.8582 202.181 21.6016C201.606 20.345 200.828 19.7167 199.848 19.7167Z" fill="white"/>
<path d="M241.902 29.6523H222.696V24.6365H241.902V20.1319H222.696V15.0843H247.304V33.9971H241.902V29.6523ZM248.806 35.7223V40.77H221.193V35.7223H248.806Z" fill="white"/>
<path d="M278.301 30.8344H253.533V14.7648H277.981V19.1735H258.87V20.739H277.534V24.8602H258.87V26.4256H278.301V30.8344ZM279.547 37.3836H268.521V42.3674H262.961V37.3836H251.935V32.5276H279.547V37.3836Z" fill="white"/>
<path d="M309.202 14.4453V41.7284H303.801V29.7801H300.19C299.956 33.4647 299.103 36.2228 297.633 38.0545C296.184 39.8648 294.245 40.77 291.817 40.77C289.175 40.77 287.097 39.6945 285.585 37.5433C284.093 35.3709 283.348 32.1123 283.348 27.7674C283.348 23.4226 284.093 20.1746 285.585 18.0234C287.097 15.851 289.175 14.7648 291.817 14.7648C294.118 14.7648 295.993 15.5955 297.441 17.2567C298.89 18.8967 299.785 21.3886 300.126 24.7324H303.801V14.4453H309.202ZM291.817 35.8182C293.883 35.8182 294.917 33.1346 294.917 27.7674C294.917 22.4002 293.883 19.7167 291.817 19.7167C289.729 19.7167 288.685 22.4002 288.685 27.7674C288.685 33.1346 289.729 35.8182 291.817 35.8182Z" fill="white"/>
<path d="M23.9991 13.8384C22.4263 13.8363 20.9186 13.2108 19.8061 12.099C18.694 10.9872 18.0682 9.47995 18.0664 7.90766V0H20.0046V7.90766C20.0041 8.96071 20.4194 9.97128 21.1597 10.7203C21.9005 11.4694 22.9063 11.8965 23.9597 11.9089C25.02 11.9069 26.0358 11.4844 26.7849 10.7342C27.5339 9.98402 27.9543 8.96749 27.9543 7.90766V0H29.8924V7.90766C29.8924 9.47376 29.2726 10.9763 28.1688 12.0874C27.0645 13.1985 25.566 13.828 23.9991 13.8384Z" fill="white"/>
<path d="M45.7607 27.2814L37.194 20.0933H39.7964C41.3692 20.0912 42.8769 19.4657 43.9895 18.3539C45.1016 17.2421 45.7273 15.7348 45.7291 14.1625C45.725 12.5909 45.0988 11.0848 43.9872 9.97344C42.8751 8.8621 41.3687 8.23595 39.7964 8.23178H31.8861V10.2087H39.7964C40.8416 10.221 41.8404 10.6415 42.5794 11.3803C43.3188 12.1192 43.7392 13.1177 43.7515 14.1625C43.7515 15.2155 43.3367 16.2262 42.5959 16.9752C41.8556 17.7242 40.8498 18.1513 39.7964 18.1638H31.8861L42.755 27.2734L45.7607 27.2814Z" fill="white"/>
<path fill-rule="evenodd" clip-rule="evenodd" d="M80.5827 30.4128L81.0255 31.7018H82.3705L81.3024 32.5242L81.6902 33.8131L80.5827 33.0461L79.483 33.8131L79.8708 32.5242L78.7949 31.7018H80.1477L80.5827 30.4128Z" fill="#FF8A3C"/>
<path fill-rule="evenodd" clip-rule="evenodd" d="M64.6036 13.9332L65.189 15.6254H66.969L65.553 16.7246L66.0668 18.4247L64.6036 17.4126L63.1482 18.4247L63.6625 16.7246L62.2465 15.6254H64.026L64.6036 13.9332Z" fill="#FF8A3C"/>
<path fill-rule="evenodd" clip-rule="evenodd" d="M50.1115 22.2125L50.7446 24.0629H52.6827L51.1402 25.2569L51.7017 27.1153L50.1115 26.0082L48.5218 27.1153L49.0833 25.2569L47.533 24.0629H49.4711L50.1115 22.2125Z" fill="#FF8A3C"/>
<path fill-rule="evenodd" clip-rule="evenodd" d="M50.5231 38.613L50.8949 39.6884H52.018L51.1163 40.3843L51.4487 41.4677L50.5231 40.8271L49.5894 41.4677L49.9217 40.3843L49.02 39.6884H50.1514L50.5231 38.613Z" fill="#FF8A3C"/>
<path fill-rule="evenodd" clip-rule="evenodd" d="M56.0286 16.0446L56.6378 17.8159H58.4967L57.0174 18.9547L57.5556 20.7418L56.0286 19.6743L54.5021 20.7418L55.0398 18.9625L53.5605 17.8159H55.4194L56.0286 16.0446Z" fill="#FF8A3C"/>
<path fill-rule="evenodd" clip-rule="evenodd" d="M56.0287 44.4568L56.4321 45.6113H57.6422L56.6773 46.3546L57.0252 47.5172L56.0287 46.8289L55.0321 47.5172L55.3878 46.3546L54.4229 45.6113H55.633L56.0287 44.4568Z" fill="#FF8A3C"/>
<path fill-rule="evenodd" clip-rule="evenodd" d="M79.0241 22.6157L78.4942 24.1656H76.8806L78.1701 25.1541L77.6952 26.704L79.0241 25.7788L80.3531 26.704L79.8864 25.1541L81.1681 24.1656H79.554L79.0241 22.6157Z" fill="#FF8A3C"/>
<path fill-rule="evenodd" clip-rule="evenodd" d="M79.0243 38.1702L78.5498 39.562H77.0944L78.2569 40.4555L77.8301 41.8473L79.0243 41.017L80.2189 41.8473L79.7994 40.4555L80.9546 39.562H79.507L79.0243 38.1702Z" fill="#FF8A3C"/>
<path fill-rule="evenodd" clip-rule="evenodd" d="M73.1075 16.2424L72.5455 17.8635H70.853L72.2053 18.9073L71.7148 20.5362L73.1075 19.5636L74.4997 20.5362L74.0092 18.9073L75.3537 17.8635H73.6612L73.1075 16.2424Z" fill="#FF8A3C"/>
<path fill-rule="evenodd" clip-rule="evenodd" d="M73.1075 43.9982L72.6564 45.3109H71.2798L72.3717 46.1571L71.9761 47.4696L73.1075 46.6869L74.2306 47.4696L73.835 46.1571L74.9264 45.3109H73.5581L73.1075 43.9982Z" fill="#FF8A3C"/>
<path fill-rule="evenodd" clip-rule="evenodd" d="M64.6036 46.7341L65.0309 47.9677H66.3204L65.2917 48.7664L65.6635 50L64.6036 49.2645L63.5438 50L63.9233 48.7664L62.8951 47.9677H64.1842L64.6036 46.7341Z" fill="#FF8A3C"/>
<path fill-rule="evenodd" clip-rule="evenodd" d="M80.5827 30.1755L81.0888 31.6385H82.6236L81.3973 32.5874L81.8484 34.0582L80.5827 33.1805L79.3248 34.0582L79.7677 32.5874L78.5497 31.6385H80.0844L80.5827 30.1755Z" fill="#FF8A3C"/>
<path fill-rule="evenodd" clip-rule="evenodd" d="M48.5456 30.7843L48.8857 31.7886H49.9378L49.0989 32.437L49.4074 33.4413L48.5456 32.8403L47.6833 33.4413L47.9836 32.437L47.153 31.7886H48.1972L48.5456 30.7843Z" fill="#FF8A3C"/>
<path d="M32.1946 29.3532C32.8299 32.4911 32.4659 35.7492 31.1535 38.6697C29.8411 41.5901 27.6462 44.026 24.8774 45.635C21.3651 47.6565 17.1941 48.2037 13.2793 47.1557C9.36446 46.1077 6.02496 43.5501 3.99362 40.0443C1.97396 36.5319 1.42933 32.3625 2.47913 28.4494C3.52888 24.5364 6.08744 21.1989 9.59412 19.1681C12.957 17.2288 16.9314 16.64 20.7124 17.521C24.4928 18.402 27.7975 20.6869 29.9557 23.9127L16.6742 31.5831L17.6392 33.2595L32.6058 24.6243C32.4632 24.3317 32.3133 24.0471 32.1469 23.7703C29.8645 19.8149 26.1046 16.9269 21.6938 15.7408C17.2825 14.5546 12.5807 15.1673 8.62138 17.4442C4.66605 19.7274 1.77845 23.4857 0.592043 27.8947C-0.594409 32.3036 0.0172932 37.003 2.29288 40.9616C4.57832 44.9138 8.33808 47.799 12.748 48.985C17.1579 50.1705 21.8579 49.5605 25.8186 47.2876C28.8858 45.5134 31.3318 42.8377 32.8235 39.6244C34.3152 36.4111 34.7804 32.8164 34.1561 29.3294L32.1946 29.3532Z" fill="white"/>
</svg>
