<svg width="37" height="37" viewBox="0 0 37 37" fill="none" xmlns="http://www.w3.org/2000/svg">
<path d="M18.56 36.1C28.5287 36.1 36.61 28.0187 36.61 18.05C36.61 8.08126 28.5287 0 18.56 0C8.59124 0 0.509979 8.08126 0.509979 18.05C0.509979 28.0187 8.59124 36.1 18.56 36.1Z" fill="#0957C3" fill-opacity="0.1"/>
<path d="M25.2201 25.4302H11.8901C9.79005 25.4302 8.08005 23.7102 8.08005 21.6202V14.4902C8.08005 12.3902 9.80005 10.6802 11.8901 10.6802H25.2201C27.3201 10.6802 29.0301 12.4002 29.0301 14.4902V21.6202C29.0301 23.7102 27.3201 25.4302 25.2201 25.4302Z" fill="#0957C3"/>
<path d="M16.3201 13.9502L22.5701 17.9002L16.3201 21.8602V13.9502Z" fill="#CEDDF3"/>
</svg>
