<svg width="37" height="37" viewBox="0 0 37 37" fill="none" xmlns="http://www.w3.org/2000/svg">
<path d="M18.4 36.02C28.3466 36.02 36.41 27.9566 36.41 18.01C36.41 8.06335 28.3466 0 18.4 0C8.45336 0 0.390007 8.06335 0.390007 18.01C0.390007 27.9566 8.45336 36.02 18.4 36.02Z" fill="#0957C3" fill-opacity="0.1"/>
<path d="M23.6 7.87988V10.7399H21.53C21.16 10.7399 20.56 10.8699 20.32 11.1199C20.08 11.3699 19.96 11.7199 19.96 12.1699V14.6899H23.6L23.3 17.5499H19.96V28.1399H16.42V17.5499H13.19V14.6899H16.42V11.7399C16.42 10.6299 16.5 9.70988 17.25 8.97988C18 8.24988 19.03 7.88989 20.33 7.88989H23.6V7.87988Z" fill="#0957C3"/>
</svg>
