<svg width="37" height="37" viewBox="0 0 37 37" fill="none" xmlns="http://www.w3.org/2000/svg">
<path d="M18.46 36.1C28.4288 36.1 36.51 28.0187 36.51 18.05C36.51 8.08126 28.4288 0 18.46 0C8.49126 0 0.410004 8.08126 0.410004 18.05C0.410004 28.0187 8.49126 36.1 18.46 36.1Z" fill="#0957C3" fill-opacity="0.1"/>
<path d="M27.86 8.18018H9.33001C8.56001 8.18018 7.92001 8.81018 7.92001 9.59018V27.5102C7.92001 28.2802 8.55001 28.9202 9.33001 28.9202H27.86C28.63 28.9202 29.27 28.2902 29.27 27.5102V9.59018C29.26 8.82018 28.63 8.18018 27.86 8.18018ZM18.59 14.2002C20.99 14.2002 22.94 16.1502 22.94 18.5502C22.94 20.9502 20.99 22.9002 18.59 22.9002C16.19 22.9002 14.24 20.9502 14.24 18.5502C14.24 16.1502 16.19 14.2002 18.59 14.2002ZM27.15 26.9002C27.15 27.1302 26.96 27.3302 26.72 27.3302H10.45C10.22 27.3302 10.02 27.1402 10.02 26.9002V17.7202C10.02 17.4902 10.21 17.2902 10.45 17.2902H12.48C12.4 17.6902 12.35 18.1102 12.35 18.5402C12.35 21.9802 15.14 24.7802 18.59 24.7802C22.03 24.7802 24.83 21.9902 24.83 18.5402C24.83 18.1102 24.79 17.6902 24.7 17.2902H26.73C26.96 17.2902 27.16 17.4802 27.16 17.7202V26.9002H27.15ZM27.15 14.0302C27.15 14.2702 26.96 14.4602 26.72 14.4602H23.17C22.93 14.4602 22.74 14.2702 22.74 14.0302V10.6002C22.74 10.3602 22.93 10.1702 23.17 10.1702H26.72C26.96 10.1702 27.15 10.3602 27.15 10.6002V14.0302Z" fill="#0957C3"/>
</svg>
