<svg width="37" height="38" viewBox="0 0 37 38" fill="none" xmlns="http://www.w3.org/2000/svg">
<path d="M18.79 37.0102C28.7366 37.0102 36.8 28.9468 36.8 19.0002C36.8 9.05359 28.7366 0.990234 18.79 0.990234C8.84338 0.990234 0.780029 9.05359 0.780029 19.0002C0.780029 28.9468 8.84338 37.0102 18.79 37.0102Z" fill="#908C8B"/>
<path d="M23.9901 8.87012V11.7301H21.9201C21.5501 11.7301 20.9501 11.8601 20.7101 12.1101C20.4701 12.3601 20.3501 12.7101 20.3501 13.1601V15.6801H23.9901L23.6901 18.5401H20.3501V29.1301H16.8101V18.5401H13.5801V15.6801H16.8101V12.7301C16.8101 11.6201 16.8901 10.7001 17.6401 9.97012C18.3901 9.24012 19.4201 8.88013 20.7201 8.88013H23.9901V8.87012Z" fill="#3C3836"/>
</svg>
