<svg width="37" height="38" viewBox="0 0 37 38" fill="none" xmlns="http://www.w3.org/2000/svg">
<path d="M18.9499 37.0502C28.9186 37.0502 36.9999 28.9689 36.9999 19.0002C36.9999 9.03145 28.9186 0.950195 18.9499 0.950195C8.98117 0.950195 0.899902 9.03145 0.899902 19.0002C0.899902 28.9689 8.98117 37.0502 18.9499 37.0502Z" fill="#908C8B"/>
<path d="M25.61 26.3804H12.28C10.18 26.3804 8.46997 24.6604 8.46997 22.5704V15.4404C8.46997 13.3404 10.19 11.6304 12.28 11.6304H25.61C27.71 11.6304 29.42 13.3504 29.42 15.4404V22.5704C29.42 24.6604 27.71 26.3804 25.61 26.3804Z" fill="#3C3836"/>
<path d="M16.71 14.9004L22.96 18.8504L16.71 22.8104V14.9004Z" fill="#908C8B"/>
</svg>
