<svg width="37" height="38" viewBox="0 0 37 38" fill="none" xmlns="http://www.w3.org/2000/svg">
<path d="M18.85 37.0502C28.8188 37.0502 36.9 28.9689 36.9 19.0002C36.9 9.03145 28.8188 0.950195 18.85 0.950195C8.88131 0.950195 0.800049 9.03145 0.800049 19.0002C0.800049 28.9689 8.88131 37.0502 18.85 37.0502Z" fill="#908C8B"/>
<path d="M28.25 9.13037H9.72006C8.95006 9.13037 8.31006 9.76037 8.31006 10.5404V28.4604C8.31006 29.2304 8.94006 29.8704 9.72006 29.8704H28.25C29.02 29.8704 29.66 29.2404 29.66 28.4604V10.5404C29.65 9.77037 29.02 9.13037 28.25 9.13037ZM18.98 15.1504C21.38 15.1504 23.33 17.1004 23.33 19.5004C23.33 21.9004 21.38 23.8504 18.98 23.8504C16.58 23.8504 14.63 21.9004 14.63 19.5004C14.63 17.1004 16.58 15.1504 18.98 15.1504ZM27.54 27.8504C27.54 28.0804 27.35 28.2804 27.11 28.2804H10.84C10.6101 28.2804 10.4101 28.0904 10.4101 27.8504V18.6704C10.4101 18.4404 10.6001 18.2404 10.84 18.2404H12.87C12.79 18.6404 12.74 19.0604 12.74 19.4904C12.74 22.9304 15.53 25.7304 18.98 25.7304C22.42 25.7304 25.22 22.9404 25.22 19.4904C25.22 19.0604 25.18 18.6404 25.09 18.2404H27.12C27.35 18.2404 27.55 18.4304 27.55 18.6704V27.8504H27.54ZM27.54 14.9804C27.54 15.2204 27.35 15.4104 27.11 15.4104H23.56C23.32 15.4104 23.13 15.2204 23.13 14.9804V11.5504C23.13 11.3104 23.32 11.1204 23.56 11.1204H27.11C27.35 11.1204 27.54 11.3104 27.54 11.5504V14.9804Z" fill="#3C3836"/>
</svg>
