<svg width="89" height="54" viewBox="0 0 89 54" fill="none" xmlns="http://www.w3.org/2000/svg">
<g clip-path="url(#clip0_26_202)">
<path d="M25.739 14.8197C24.0554 14.8174 22.4414 14.1476 21.2509 12.9571C20.0604 11.7667 19.3907 10.1527 19.3884 8.46911V0.00170898H21.463V8.46911C21.4629 9.59668 21.9073 10.6788 22.6998 11.4809C23.4924 12.2829 24.5692 12.7402 25.6967 12.7536C26.8315 12.7514 27.9191 12.299 28.7208 11.4957C29.5224 10.6924 29.9727 9.60397 29.9727 8.46911V0.00170898H32.0472V8.46911C32.0472 10.1461 31.384 11.7549 30.2021 12.9447C29.0203 14.1344 27.4159 14.8085 25.739 14.8197Z" fill="white"/>
<path d="M49.0328 29.2142L39.8626 21.5173H42.6483C44.3319 21.515 45.9459 20.8452 47.1364 19.6547C48.3269 18.4643 48.9966 16.8503 48.9989 15.1667C48.9944 13.4838 48.3239 11.8711 47.1339 10.6811C45.9439 9.49113 44.3312 8.82063 42.6483 8.81616H34.1809V10.933H42.6483C43.7671 10.9462 44.8363 11.3965 45.6274 12.1876C46.4185 12.9787 46.8688 14.048 46.882 15.1667C46.8821 16.2943 46.4377 17.3764 45.6451 18.1785C44.8526 18.9805 43.7758 19.4378 42.6483 19.4512H34.1809L45.8151 29.2057L49.0328 29.2142Z" fill="white"/>
<path fill-rule="evenodd" clip-rule="evenodd" d="M86.3062 32.5672L86.7804 33.9474H88.2198L87.0767 34.828L87.4916 36.2082L86.3062 35.3868L85.1292 36.2082L85.5441 34.828L84.3926 33.9474H85.8405L86.3062 32.5672Z" fill="white"/>
<path fill-rule="evenodd" clip-rule="evenodd" d="M69.202 14.9212L69.8286 16.7332H71.7337L70.2181 17.9102L70.7685 19.7307L69.202 18.6469L67.644 19.7307L68.1944 17.9102L66.6787 16.7332H68.5839L69.202 14.9212Z" fill="white"/>
<path fill-rule="evenodd" clip-rule="evenodd" d="M53.6898 23.7866L54.3672 25.7679H56.4417L54.7906 27.0465L55.3918 29.0363L53.6898 27.8509L51.9879 29.0363L52.5891 27.0465L50.9294 25.7679H53.004L53.6898 23.7866Z" fill="white"/>
<path fill-rule="evenodd" clip-rule="evenodd" d="M54.13 41.348L54.528 42.4995H55.7304L54.7651 43.2447L55.1207 44.4047L54.13 43.7188L53.1309 44.4047L53.4865 43.2447L52.5212 42.4995H53.7321L54.13 41.348Z" fill="white"/>
<path fill-rule="evenodd" clip-rule="evenodd" d="M60.0234 17.1821L60.6754 19.0788H62.6653L61.0818 20.2981L61.6576 22.2117L60.0234 21.0686L58.3892 22.2117L58.965 20.3065L57.3816 19.0788H59.3714L60.0234 17.1821Z" fill="white"/>
<path fill-rule="evenodd" clip-rule="evenodd" d="M60.0233 47.6054L60.4552 48.8416H61.7507L60.7177 49.6376L61.0902 50.8823L60.0233 50.1456L58.9564 50.8823L59.3375 49.6376L58.3044 48.8416H59.6L60.0233 47.6054Z" fill="white"/>
<path fill-rule="evenodd" clip-rule="evenodd" d="M84.6382 24.2184L84.0708 25.8781H82.3435L83.7237 26.9365L83.2156 28.5961L84.6382 27.6054L86.0607 28.5961L85.5611 26.9365L86.9328 25.8781H85.2055L84.6382 24.2184Z" fill="white"/>
<path fill-rule="evenodd" clip-rule="evenodd" d="M84.6381 40.8738L84.13 42.3641H82.572L83.8167 43.3209L83.3595 44.8112L84.6381 43.9221L85.9166 44.8112L85.4679 43.3209L86.7041 42.3641H85.1546L84.6381 40.8738Z" fill="white"/>
<path fill-rule="evenodd" clip-rule="evenodd" d="M78.3046 17.3938L77.7034 19.1296H75.8914L77.3393 20.2473L76.8143 21.9916L78.3046 20.9501L79.7948 21.9916L79.2699 20.2473L80.7093 19.1296H78.8973L78.3046 17.3938Z" fill="white"/>
<path fill-rule="evenodd" clip-rule="evenodd" d="M78.3046 47.1143L77.822 48.5199H76.3486L77.5171 49.4259L77.0938 50.8315L78.3046 49.9932L79.507 50.8315L79.0836 49.4259L80.2521 48.5199H78.7872L78.3046 47.1143Z" fill="white"/>
<path fill-rule="evenodd" clip-rule="evenodd" d="M69.202 50.0439L69.6592 51.3649H71.0394L69.9387 52.2201L70.3366 53.541L69.202 52.7535L68.0674 53.541L68.4738 52.2201L67.373 51.3649H68.7532L69.202 50.0439Z" fill="white"/>
<path fill-rule="evenodd" clip-rule="evenodd" d="M86.3063 32.3132L86.8482 33.8797H88.4908L87.1784 34.8958L87.661 36.4707L86.3063 35.5308L84.9599 36.4707L85.4341 34.8958L84.1301 33.8797H85.7728L86.3063 32.3132Z" fill="white"/>
<path fill-rule="evenodd" clip-rule="evenodd" d="M52.0132 32.9652L52.3773 34.0406H53.5036L52.6059 34.7349L52.9362 35.8103L52.0132 35.1667L51.0904 35.8103L51.412 34.7349L50.5229 34.0406H51.6406L52.0132 32.9652Z" fill="white"/>
<path d="M34.5111 31.4326C35.1915 34.7926 34.8018 38.2814 33.3969 41.4086C31.9921 44.5357 29.6426 47.144 26.6788 48.8669C22.9193 51.0318 18.4547 51.6173 14.2642 50.4951C10.0737 49.3729 6.49921 46.6344 4.32482 42.8805C2.16296 39.1195 1.58001 34.6549 2.7037 30.4649C3.82738 26.2749 6.56608 22.7011 10.3198 20.5266C13.9192 18.45 18.1735 17.8196 22.2205 18.7629C26.2675 19.7063 29.8046 22.1529 32.1148 25.607L17.8981 33.8204L18.9311 35.6155L34.9515 26.3691C34.799 26.0558 34.6381 25.751 34.4603 25.4546C32.0172 21.2192 27.9927 18.1268 23.271 16.8567C18.5494 15.5865 13.5166 16.2426 9.27828 18.6807C5.04462 21.1255 1.95369 25.1498 0.683748 29.8708C-0.586197 34.5919 0.0685706 39.6239 2.50436 43.8627C4.95072 48.0947 8.97509 51.1841 13.6955 52.4539C18.4158 53.7236 23.4471 53.0702 27.6864 50.6367C30.9695 48.7368 33.5876 45.8716 35.1845 42.4309C36.7814 38.9902 37.2795 35.141 36.611 31.4072L34.5111 31.4326Z" fill="white"/>
</g>
<defs>
<clipPath id="clip0_26_202">
<rect width="89" height="54" fill="white"/>
</clipPath>
</defs>
</svg>
