<svg width="35" height="16" viewBox="0 0 35 16" fill="none" xmlns="http://www.w3.org/2000/svg">
<path d="M26.4 0C21.984 0 18.4 3.584 18.4 8C18.4 8.032 18.408 8.064 18.408 8.096H28.512L24.184 3.768L24.744 3.2L29.64 8.096L30.4 8.856V8.896H30.36H29.304H18.456C18.904 12.896 22.288 16 26.4 16C30.816 16 34.4 12.416 34.4 8C34.4 3.584 30.816 0 26.4 0Z" fill="white"/>
<path d="M0 8.09601V8.89601H18.456C18.424 8.63201 18.408 8.36801 18.408 8.09601H0Z" fill="white"/>
<path d="M30.36 8.896H30.4V8.856L29.64 8.096L24.744 3.2L24.176 3.768L28.504 8.096H18.408C18.408 8.368 18.424 8.632 18.456 8.896H29.312H30.36Z" fill="#0957C3"/>
</svg>
