<svg width="43" height="20" viewBox="0 0 43 20" fill="none" xmlns="http://www.w3.org/2000/svg">
<path d="M33 0C27.48 0 23 4.48 23 10C23 10.04 23.01 10.08 23.01 10.12H35.64L30.23 4.71L30.93 4L37.05 10.12L38 11.07V11.12H37.95H36.63H23.07C23.63 16.12 27.86 20 33 20C38.52 20 43 15.52 43 10C43 4.48 38.52 0 33 0Z" fill="#0957C3"/>
<path d="M0 10.12V11.12H23.07C23.03 10.79 23.01 10.46 23.01 10.12H0Z" fill="#0957C3"/>
<path d="M37.95 11.12H38V11.07L37.05 10.12L30.93 4L30.22 4.71L35.63 10.12H23.01C23.01 10.46 23.03 10.79 23.07 11.12H36.64H37.95Z" fill="white"/>
</svg>
